PathFileType	4	(X/Y/Z)	C:\Users\Basilio\Documents\Thesis Gigler\squatting_fais\c3dfiles\076\SJ_pre3\markers_experimental.trc
DataRate	CameraRate	NumFrames	NumMarkers	Units	OrigDataRate	OrigDataStartFrame	OrigNumFrames
200.000000	200.000000	4	61	mm	200.000000	170	1365
Frame#	Time	FHD			RBHD			C7			T10			CLAV			LSHO			LUUPA			LMUPA			LDUPA			LLEP			LMEP			LRAD			LUL			LRFIN			RSHO			RUPA1			RMUPA			RDUPA			RLEP			RMEP			RRAD			RUL			RUFIN			LASI			RASI			USACR			LSACR			RSACR			LTHI1			LTHI2			LTHI3			LTHI4			LLFC			LMFC			LTIB1			LTIB2			LTIB3			LTIB4			LLMAL			LMMAL			LHEE			LMT1			LMT2			LMT5			RTHI			RTHI2			RTHI3			RTHI4			RLFC			RMFC			RTIB1			RTIB2			RTIB3			RTIB4			RLMAL			RMMAL			RHEE			RMT1			RMT2			RMT5			LBHD			
		X1	Y1	Z1	X2	Y2	Z2	X3	Y3	Z3	X4	Y4	Z4	X5	Y5	Z5	X6	Y6	Z6	X7	Y7	Z7	X8	Y8	Z8	X9	Y9	Z9	X10	Y10	Z10	X11	Y11	Z11	X12	Y12	Z12	X13	Y13	Z13	X14	Y14	Z14	X15	Y15	Z15	X16	Y16	Z16	X17	Y17	Z17	X18	Y18	Z18	X19	Y19	Z19	X20	Y20	Z20	X21	Y21	Z21	X22	Y22	Z22	X23	Y23	Z23	X24	Y24	Z24	X25	Y25	Z25	X26	Y26	Z26	X27	Y27	Z27	X28	Y28	Z28	X29	Y29	Z29	X30	Y30	Z30	X31	Y31	Z31	X32	Y32	Z32	X33	Y33	Z33	X34	Y34	Z34	X35	Y35	Z35	X36	Y36	Z36	X37	Y37	Z37	X38	Y38	Z38	X39	Y39	Z39	X40	Y40	Z40	X41	Y41	Z41	X42	Y42	Z42	X43	Y43	Z43	X44	Y44	Z44	X45	Y45	Z45	X46	Y46	Z46	X47	Y47	Z47	X48	Y48	Z48	X49	Y49	Z49	X50	Y50	Z50	X51	Y51	Z51	X52	Y52	Z52	X53	Y53	Z53	X54	Y54	Z54	X55	Y55	Z55	X56	Y56	Z56	X57	Y57	Z57	X58	Y58	Z58	X59	Y59	Z59	X60	Y60	Z60	X61	Y61	Z61	

171	0.85	-112.580924987793	1576.274169921875	-889.4014892578127	-252.865707397461	1548.533081054688	-837.4348754882815	-341.9207458496094	1423.791259765625	-915.0957641601565	-376.7769470214844	1101.151123046875	-932.9644165039065	-215.9909820556641	1338.844848632813	-909.1375122070315	-274.0333862304688	1371.051635742188	-1085.816650390625	-293.3137512207032	1217.40087890625	-1215.302612304688	-280.0220031738282	1172.904907226563	-1197.161865234375	-303.4556579589844	1159.06103515625	-1251.814453125	-317.7592468261719	1111.2900390625	-1280.308837890625	-397.7776794433595	1102.258666992188	-1244.069580078125	-325.4031372070313	924.9029541015627	-1124.37744140625	-277.9264526367188	940.5106201171877	-1100.15380859375	-282.4875183105469	895.1788330078127	-1162.393920898438	-292.9828491210938	1357.324951171875	-746.9108886718751	-352.8974304199219	1217.41796875	-617.1784057617189	-321.1780090332032	1178.36767578125	-615.8952026367189	-365.5247802734376	1158.052001953125	-580.0784912109376	-362.3889465332032	1088.000732421875	-558.7695922851564	-428.8698730468751	1074.457275390625	-616.5088500976564	-325.5250854492188	922.7836914062502	-731.7445068359376	-270.7895507812501	940.626403808594	-742.1671142578126	-282.5363769531251	895.691833496094	-686.9764404296876	-215.2715759277344	909.8948364257815	-1029.322387695313	-222.5767364501954	912.5347900390627	-818.5471801757815	-379.8002319335938	996.1448364257815	-930.5857543945315	-387.4149169921876	968.4534301757815	-960.3508300781252	-389.8747863769532	966.4656372070315	-903.3248291015627	-299.8069458007813	769.157165527344	-1109.306396484375	-273.0043640136719	688.4553833007814	-1115.626586914063	-224.3435363769532	688.2390136718751	-1103.02392578125	-304.7319946289063	636.7174072265626	-1106.066772460938	-301.2766723632813	475.7401428222657	-1099.082275390625	-277.0659179687501	457.4169311523439	-984.4124755859377	-293.5021057128907	320.9522399902344	-1042.02587890625	-314.3414306640626	276.1206970214844	-1115.687133789063	-290.7534484863282	273.0019226074219	-1075.568725585938	-319.7889404296876	196.7034454345704	-1052.501220703125	-386.0393371582032	83.25587463378908	-1124.252075195313	-366.7193908691407	90.94763183593751	-1039.375244140625	-446.0479736328126	45.24486541748048	-1081.415893554688	-236.5677947998047	54.3185501098633	-1052.295043945313	-229.7805938720704	52.90124893188478	-1090.65185546875	-246.1580200195313	42.14318847656251	-1142.75	-304.7537841796876	673.8503417968751	-739.0917968750001	-267.1826477050782	618.3709716796876	-732.4335937500001	-232.6238403320313	620.8078613281251	-739.7058105468751	-292.7427062988282	541.0662841796876	-743.8269042968751	-287.2183837890626	480.7261657714845	-743.5430908203126	-264.4352722167969	468.4436950683595	-858.8621826171877	-262.0718078613282	340.1894226074219	-758.6035156250001	-341.3967895507813	273.6561889648438	-723.7908935546876	-297.3940124511719	263.2926940917969	-737.2396240234376	-294.9987182617188	214.3593139648438	-770.6000976562502	-376.7335815429688	83.25820922851564	-728.9849243164064	-357.9674072265626	96.86887359619143	-812.694274902344	-434.779754638672	57.6077346801758	-776.0280761718752	-228.0487365722657	53.40634536743165	-798.148864746094	-224.3079528808594	53.01381683349611	-752.4882202148439	-250.4291229248047	31.70353889465333	-698.9646606445314	-262.1998291015626	1539.4091796875	-989.7502441406252	
172	0.855	-110.8631362915039	1574.908447265625	-889.4983520507815	-251.2658996582032	1547.903564453125	-837.4341430664065	-341.1408691406251	1423.652221679688	-915.3071899414065	-377.2243957519532	1101.013427734375	-933.2453613281252	-215.5489807128907	1338.193969726563	-909.275329589844	-273.3347167968751	1370.604736328125	-1085.885864257813	-293.0763549804688	1217.114501953125	-1215.51318359375	-279.9443359375001	1172.432983398438	-1197.386962890625	-303.2092895507813	1158.777221679688	-1252.065551757813	-318.3703308105469	1111.18701171875	-1280.859619140625	-397.8377685546876	1102.343383789063	-1244.258178710938	-325.9657592773438	924.6768798828127	-1124.594848632813	-278.5927124023438	940.1958007812502	-1100.345336914063	-283.1797180175782	894.9012451171877	-1162.558837890625	-292.5867004394532	1356.996215820313	-747.1168212890626	-352.6875610351563	1217.220703125	-617.2630615234376	-321.0962524414063	1178.134887695313	-616.0135498046876	-365.4555358886719	1157.95703125	-580.1369018554689	-362.5283508300782	1087.8759765625	-558.7973632812501	-428.8922729492189	1074.495361328125	-616.4835815429689	-326.0025634765626	922.6773071289065	-731.8091430664064	-271.4676208496094	940.329040527344	-742.3503417968751	-283.1415710449219	895.519226074219	-687.1583862304689	-215.9894256591797	909.5861816406252	-1029.422119140625	-223.2658386230469	912.1836547851565	-818.7185668945315	-380.4406433105469	996.0689697265627	-930.8109130859377	-388.1658325195314	968.331237792969	-960.4526977539065	-390.7859497070314	966.4162597656252	-903.5005493164065	-301.4817810058594	769.073181152344	-1109.619506835938	-274.0021057128907	688.1605834960939	-1115.688232421875	-225.4154510498047	687.9315795898439	-1103.250610351563	-305.5212097167969	636.3040161132814	-1106.003295898438	-302.0004882812501	475.4455871582032	-1099.0673828125	-279.4160766601563	456.7226867675782	-984.0065917968752	-293.2114562988282	320.5983886718751	-1041.762329101563	-314.7853088378907	275.8651733398438	-1115.577026367188	-290.9768066406251	272.7302246093751	-1075.573486328125	-319.9859008789063	196.3223876953126	-1052.337768554688	-386.1835327148439	82.94925689697267	-1123.97216796875	-366.8023681640626	90.5647430419922	-1039.015258789063	-446.0594177246095	45.03611755371094	-1081.301879882813	-236.6602325439454	54.21101379394533	-1052.307861328125	-229.8408508300782	53.01648712158205	-1090.658203125	-246.1929931640626	42.17126083374024	-1142.654296875	-304.4625854492188	673.5826416015626	-739.0917968750001	-266.6550903320313	618.2458496093751	-732.3072509765626	-232.0838012695313	620.8779296875001	-739.6806640625001	-291.7923583984376	540.7451171875001	-743.7044067382814	-286.0174560546876	480.6487731933595	-743.2607421875001	-263.3045959472657	468.3152160644532	-858.6641235351565	-261.0968322753907	340.0125122070313	-758.4985961914064	-340.6854553222657	273.6723632812501	-723.6021728515626	-296.6850280761719	263.0960388183594	-737.0455322265626	-294.2817993164063	214.5479125976563	-770.5391235351565	-376.6078796386719	83.36880493164064	-728.7803955078126	-357.9013671875001	97.01081848144534	-812.4597167968752	-434.7438049316407	57.85314559936525	-775.7915039062502	-228.0797424316407	53.35123443603517	-798.0772094726565	-224.3938903808594	52.89465332031251	-752.4603881835939	-250.3607940673829	31.58596992492676	-698.9113769531251	-261.0581054687501	1538.933227539063	-989.8389282226565	
173	0.86	-109.2703475952149	1573.5498046875	-889.5817871093752	-249.7100677490235	1547.4287109375	-837.4824218750002	-340.3651733398438	1423.480224609375	-915.578552246094	-377.6750793457032	1101.005615234375	-933.440124511719	-215.0903015136719	1337.525024414063	-909.353942871094	-273.1536560058594	1370.295288085938	-1086.310913085938	-292.8479309082032	1216.830444335938	-1215.771850585938	-279.7505493164063	1172.019287109375	-1197.568969726563	-303.0803527832032	1158.456176757813	-1252.345581054688	-317.7128295898438	1110.835693359375	-1280.939697265625	-397.9305419921876	1102.328125	-1244.796508789063	-326.8878479003907	924.6854248046877	-1124.826293945313	-279.4783020019532	939.9212646484377	-1100.566162109375	-283.8586730957032	894.517272949219	-1162.658203125	-292.1683349609376	1356.589233398438	-747.2610473632814	-352.5372314453126	1217.088500976563	-617.3953857421876	-321.0105590820313	1177.913940429688	-616.1687011718751	-365.4249877929688	1157.81640625	-580.2153320312501	-362.6662597656251	1087.766723632813	-558.8253173828126	-429.1825561523439	1074.478393554688	-616.4261474609376	-326.5137939453126	922.4895019531252	-731.8995971679689	-272.2447204589844	940.0382080078127	-742.5136718750001	-283.8355407714844	895.280456542969	-687.2342529296876	-217.1712036132813	909.2044677734377	-1029.631958007813	-223.9654388427735	911.866882324219	-818.8498535156252	-381.1956176757813	995.747497558594	-931.0425415039065	-389.0569152832032	968.093933105469	-960.6069946289065	-391.5931396484376	966.1512451171877	-903.6096801757815	-302.6553955078126	768.6870727539065	-1109.618774414063	-275.0451049804688	687.7830810546876	-1115.8603515625	-226.4130554199219	687.6532592773439	-1103.495239257813	-306.4124755859376	635.8729858398439	-1106.006713867188	-302.5925292968751	475.1604309082032	-1099.047485351563	-279.2992553710938	456.5040283203126	-984.0806274414065	-293.8553771972657	320.2180480957032	-1041.68115234375	-315.1751098632813	275.3111572265626	-1115.455444335938	-291.2959289550782	272.2813415527344	-1075.57080078125	-319.8574218750001	196.2589569091797	-1052.138671875	-386.2861328125001	82.50862121582033	-1123.658447265625	-366.8518066406251	90.22283172607423	-1038.661254882813	-446.0811157226564	44.83076477050782	-1081.136840820313	-236.6328735351563	54.25924682617189	-1052.221313476563	-229.9052886962891	53.02315139770509	-1090.593627929688	-246.2005615234376	42.18055725097657	-1142.632202148438	-304.2117919921876	673.3118896484376	-739.0276489257814	-266.1258239746094	618.1291503906251	-732.1741333007814	-231.6280822753907	620.7858886718751	-739.5745239257814	-290.8373413085938	540.5480957031251	-743.5986328125001	-284.9071350097657	480.4045410156251	-743.0249023437501	-262.9550476074219	468.3432617187501	-858.5509033203127	-260.0940246582032	339.8052673339844	-758.3638916015626	-339.8687133789063	273.7978210449219	-723.3555297851564	-295.9910583496094	263.1008605957032	-736.8752441406251	-293.8047485351563	214.4687194824219	-770.354187011719	-376.4701232910157	83.50888061523439	-728.5823364257814	-357.8548889160157	97.16581726074222	-812.2481689453127	-434.7215576171876	58.10276794433595	-775.502624511719	-228.0595245361329	53.39374923706056	-798.0345458984377	-224.2814025878907	52.92050552368165	-752.4314575195314	-250.3032836914063	31.5577621459961	-698.8497314453126	-259.8722839355469	1538.500732421875	-989.997985839844	
174	0.865	-107.5944519042969	1572.086791992188	-889.5941162109377	-248.2276000976563	1546.728149414063	-837.5344238281252	-339.6333618164063	1423.255126953125	-915.7746582031252	-378.1131591796876	1101.002685546875	-933.7648925781252	-214.6932525634766	1336.869873046875	-909.4097900390627	-272.5021972656251	1369.767944335938	-1086.484619140625	-292.4437561035157	1216.48486328125	-1216.014404296875	-279.4166564941407	1171.595825195313	-1197.736083984375	-302.7958068847657	1158.105102539063	-1252.693115234375	-317.6451416015626	1110.602661132813	-1281.209228515625	-397.913299560547	1102.356079101563	-1244.981811523438	-327.7180480957032	924.3625488281252	-1125.163940429688	-280.5863342285157	939.457214355469	-1100.781982421875	-284.7174072265626	894.1015625000002	-1162.788330078125	-291.7065734863282	1356.169677734375	-747.4884643554689	-352.3404235839844	1216.911254882813	-617.5393066406251	-321.0250244140626	1177.732299804688	-616.3320312500001	-365.4125671386719	1157.610473632813	-580.3248291015626	-362.7611083984376	1087.5947265625	-558.9888305664064	-429.3823852539064	1074.40576171875	-616.4856567382814	-327.4480895996094	922.2087402343752	-732.0870971679689	-272.9351501464844	939.6936035156252	-742.7789916992189	-284.5914916992188	894.9293212890627	-687.4478149414064	-218.0735626220704	908.6064453125002	-1029.955688476563	-224.9728698730469	911.4185180664065	-819.1751708984377	-381.9869384765626	995.5301513671877	-931.1680908203127	-389.9140014648439	967.8630981445315	-960.8911743164065	-392.1925048828126	966.0303955078127	-903.8831176757815	-303.2244567871094	768.053405761719	-1109.64404296875	-275.9506835937501	687.3794555664064	-1115.975219726563	-227.1649627685547	687.2541503906251	-1103.619873046875	-307.1367797851563	635.5251464843751	-1106.132202148438	-303.0551452636719	474.7897949218751	-1099.00390625	-279.3900146484376	456.0328063964845	-984.1326904296877	-293.8773193359376	319.8563842773438	-1041.538940429688	-315.5438232421876	274.9365234375001	-1115.387573242188	-291.4942321777344	271.8293762207032	-1075.557495117188	-320.0522460937501	195.9293975830079	-1051.913940429688	-386.2766418457032	82.22132873535158	-1123.412231445313	-366.9987792968751	89.81867980957033	-1038.361206054688	-446.075897216797	44.62423706054688	-1081.08251953125	-236.6399383544922	54.2667922973633	-1052.174682617188	-229.9643249511719	53.1088218688965	-1090.563842773438	-246.2572326660157	42.27623748779298	-1142.573364257813	-304.0699462890626	673.0925903320314	-738.9915771484376	-265.5864257812501	618.0333862304689	-732.1190795898439	-231.1466369628907	620.8391113281251	-739.4155883789064	-289.9238891601563	540.3690795898439	-743.4724731445314	-283.8410949707032	480.2786560058595	-742.9221191406251	-261.1822509765626	468.1753234863282	-858.144714355469	-259.2441711425782	339.6842651367188	-758.2708740234376	-339.1239624023438	273.7777099609376	-723.2276611328126	-295.3076477050782	263.0265197753907	-736.7322998046876	-293.2779541015626	214.3731079101563	-770.1958007812502	-376.3168334960938	83.59964752197267	-728.4171142578126	-357.6435241699219	97.30800628662112	-812.067565917969	-434.5762023925782	58.31807708740236	-775.2625732421877	-227.9810485839844	53.37003707885744	-797.984802246094	-224.4190216064454	52.89347457885744	-752.4152221679689	-250.1616973876954	31.41417121887208	-698.8707275390626	-258.2306213378907	1538.107299804688	-989.9978027343752	
